<svg width="792" height="125" viewBox="0 0 792 125" fill="none" xmlns="http://www.w3.org/2000/svg">
<g clip-path="url(#clip0_1_2)">
<path d="M0 62.5C0 27.9822 27.9822 0 62.5 0H729.5C764.018 0 792 27.9822 792 62.5C792 97.0178 764.018 125 729.5 125H62.5C27.9822 125 0 97.0178 0 62.5Z" fill="white"/>
<path d="M58.2063 63.208V18.1279H102.834H147.462L151.672 18.8642C165.847 21.3433 179.391 32.2596 183.07 44.1717L183.406 45.2619H176.396H169.387L167.836 42.3447C163.074 33.3843 153.161 28.3903 141.139 28.8961L135.751 29.1228L131.993 30.41C121.047 34.1596 111.352 46.345 111.352 56.3551V57.3753H120.774H130.195V62.4629V67.5506H120.563H110.93L111.185 69.3676C115.301 98.6405 153.982 108.898 167.827 84.3882L169.401 81.6021H176.371C180.205 81.6021 183.341 81.716 183.341 81.8551C183.341 89.44 167.544 103.446 155.077 106.914L151.212 107.989L104.709 108.139L58.2063 108.288V63.208ZM110.316 94.279C104.483 88.0456 100.67 80.1236 99.2591 71.3057L98.658 67.5506H83.5052H68.3524V82.8135V98.0764H91.1104H113.869L110.316 94.279ZM99.3549 54.7878C100.519 46.6237 104.949 37.7297 111.039 31.3315L113.921 28.3032H91.1368H68.3524V42.846V57.3889L83.6865 57.261L99.0205 57.133L99.3549 54.7878Z" fill="black"/>
<path d="M221.111 43.68V59.776H237.751V63.52H221.111V80.448H241.623V84H217.015V40.032H240.887L240.343 43.68H221.111ZM277.246 61.792C277.246 57.696 276.787 54.4427 275.87 52.032C274.974 49.6 273.801 47.7867 272.35 46.592C270.899 45.3973 269.331 44.608 267.646 44.224C265.982 43.84 264.371 43.648 262.814 43.648H256.766V80.48H262.91C264.531 80.48 266.174 80.224 267.838 79.712C269.523 79.2 271.07 78.272 272.478 76.928C273.907 75.584 275.059 73.696 275.934 71.264C276.809 68.8107 277.246 65.6533 277.246 61.792ZM281.694 61.792C281.694 65.504 281.299 68.6613 280.51 71.264C279.721 73.8453 278.654 75.9787 277.31 77.664C275.987 79.328 274.483 80.6187 272.798 81.536C271.113 82.4533 269.353 83.0933 267.518 83.456C265.705 83.8187 263.945 84 262.238 84H252.702V40.032H261.566C264.062 40.032 266.505 40.32 268.894 40.896C271.283 41.4507 273.438 42.5067 275.358 44.064C277.299 45.6 278.835 47.7973 279.966 50.656C281.118 53.4933 281.694 57.2053 281.694 61.792ZM318.309 40.032V69.888C318.309 72.8533 317.712 75.4453 316.517 77.664C315.322 79.8613 313.669 81.5787 311.557 82.816C309.445 84.032 307.002 84.64 304.229 84.64C301.413 84.64 298.96 84.0213 296.869 82.784C294.8 81.5253 293.189 79.7867 292.037 77.568C290.906 75.3493 290.341 72.7893 290.341 69.888V40.032H294.373V71.296C294.373 74.4533 295.28 76.8213 297.093 78.4C298.906 79.9573 301.285 80.736 304.229 80.736C307.216 80.736 309.616 79.9573 311.429 78.4C313.264 76.8213 314.181 74.4533 314.181 71.296V40.032H318.309ZM351.884 72.256H333.132L329.26 84H325.42L339.98 40.032H345.388L359.98 84H355.756L351.884 72.256ZM334.508 68.544H350.54L342.572 43.84L334.508 68.544ZM395.827 52.032C395.827 54.272 395.326 56.224 394.323 57.888C393.32 59.5307 391.966 60.8853 390.259 61.952C388.552 62.9973 386.632 63.744 384.499 64.192L398.003 84H392.883L380.147 64.512H373.299V84H369.203V40.032H379.731C385 40.032 389 41.056 391.731 43.104C394.462 45.152 395.827 48.128 395.827 52.032ZM391.315 52.032C391.315 49.0027 390.44 46.8373 388.691 45.536C386.963 44.2133 384.254 43.552 380.563 43.552H373.299V60.992H380.435C383.87 60.992 386.536 60.32 388.435 58.976C390.355 57.6107 391.315 55.296 391.315 52.032ZM430.746 61.792C430.746 57.696 430.287 54.4427 429.37 52.032C428.474 49.6 427.301 47.7867 425.85 46.592C424.399 45.3973 422.831 44.608 421.146 44.224C419.482 43.84 417.871 43.648 416.314 43.648H410.266V80.48H416.41C418.031 80.48 419.674 80.224 421.338 79.712C423.023 79.2 424.57 78.272 425.978 76.928C427.407 75.584 428.559 73.696 429.434 71.264C430.309 68.8107 430.746 65.6533 430.746 61.792ZM435.194 61.792C435.194 65.504 434.799 68.6613 434.01 71.264C433.221 73.8453 432.154 75.9787 430.81 77.664C429.487 79.328 427.983 80.6187 426.298 81.536C424.613 82.4533 422.853 83.0933 421.018 83.456C419.205 83.8187 417.445 84 415.738 84H406.202V40.032H415.066C417.562 40.032 420.005 40.32 422.394 40.896C424.783 41.4507 426.938 42.5067 428.858 44.064C430.799 45.6 432.335 47.7973 433.466 50.656C434.618 53.4933 435.194 57.2053 435.194 61.792ZM473.601 62.08C473.601 66.4533 473.014 70.3467 471.841 73.76C470.668 77.152 468.908 79.8187 466.561 81.76C464.236 83.68 461.324 84.64 457.825 84.64C454.348 84.64 451.436 83.7013 449.089 81.824C446.742 79.9253 444.982 77.2907 443.809 73.92C442.636 70.5493 442.049 66.6347 442.049 62.176C442.049 57.7813 442.636 53.8773 443.809 50.464C444.982 47.0293 446.742 44.3307 449.089 42.368C451.436 40.4053 454.348 39.424 457.825 39.424C461.324 39.424 464.236 40.384 466.561 42.304C468.908 44.2027 470.668 46.8587 471.841 50.272C473.014 53.664 473.601 57.6 473.601 62.08ZM469.249 62.08C469.249 56.0853 468.364 51.4453 466.593 48.16C464.822 44.8533 461.9 43.2 457.825 43.2C453.75 43.2 450.828 44.864 449.057 48.192C447.286 51.52 446.401 56.1813 446.401 62.176C446.401 68.1493 447.318 72.7573 449.153 76C450.988 79.2427 453.878 80.864 457.825 80.864C461.878 80.864 464.79 79.2427 466.561 76C468.353 72.736 469.249 68.096 469.249 62.08ZM538.287 39.424C541.082 39.424 543.407 39.776 545.263 40.48C547.119 41.1627 548.9 42.1867 550.607 43.552L548.111 46.4C546.682 45.184 545.178 44.3413 543.599 43.872C542.042 43.3813 540.42 43.136 538.735 43.136C536.175 43.136 533.786 43.7227 531.567 44.896C529.37 46.0693 527.599 48.032 526.255 50.784C524.911 53.5147 524.239 57.2587 524.239 62.016C524.239 66.6453 524.879 70.336 526.159 73.088C527.439 75.84 529.156 77.824 531.311 79.04C533.487 80.256 535.898 80.864 538.543 80.864C541.082 80.864 543.162 80.5013 544.783 79.776C546.426 79.0507 547.823 78.208 548.975 77.248L551.279 80.192C550.042 81.3867 548.378 82.432 546.287 83.328C544.218 84.2027 541.658 84.64 538.607 84.64C535.172 84.64 532.036 83.776 529.199 82.048C526.383 80.2987 524.143 77.7493 522.479 74.4C520.815 71.0293 519.983 66.9013 519.983 62.016C519.983 57.0667 520.826 52.9173 522.511 49.568C524.218 46.2187 526.458 43.6907 529.231 41.984C532.026 40.2773 535.044 39.424 538.287 39.424ZM582.134 84V62.432H563.766V84H559.702V40.032H563.766V59.104H582.134V40.032H586.198V84H582.134ZM620.509 72.256H601.757L597.885 84H594.045L608.605 40.032H614.013L628.605 84H624.381L620.509 72.256ZM603.133 68.544H619.165L611.197 43.84L603.133 68.544ZM649.796 78.24L662.756 40.032H666.82L651.492 84H647.908L632.548 40.032H636.996L649.796 78.24ZM681.611 43.68V59.776H698.251V63.52H681.611V80.448H702.123V84H677.515V40.032H701.387L700.843 43.68H681.611ZM740.978 72.032C740.978 74.4853 740.37 76.6613 739.154 78.56C737.959 80.4587 736.21 81.952 733.906 83.04C731.602 84.1067 728.786 84.64 725.458 84.64C722.535 84.64 719.794 84.1813 717.234 83.264C714.695 82.3467 712.498 81.0027 710.642 79.232L713.33 76.16C714.823 77.5893 716.562 78.7413 718.546 79.616C720.53 80.4693 722.909 80.896 725.682 80.896C727.559 80.896 729.341 80.576 731.026 79.936C732.711 79.296 734.087 78.3147 735.154 76.992C736.221 75.6693 736.754 73.984 736.754 71.936C736.754 70.4 736.466 69.0987 735.89 68.032C735.314 66.944 734.29 65.984 732.818 65.152C731.346 64.2987 729.277 63.488 726.61 62.72C723.879 61.9307 721.447 61.0347 719.314 60.032C717.181 59.008 715.506 57.728 714.29 56.192C713.074 54.6347 712.466 52.672 712.466 50.304C712.466 48.256 713.021 46.4107 714.13 44.768C715.261 43.1253 716.839 41.824 718.866 40.864C720.893 39.904 723.271 39.424 726.002 39.424C728.925 39.424 731.453 39.84 733.586 40.672C735.741 41.504 737.725 42.6987 739.538 44.256L736.786 47.264C735.186 45.8133 733.458 44.768 731.602 44.128C729.767 43.488 727.901 43.168 726.002 43.168C724.317 43.168 722.759 43.4347 721.33 43.968C719.901 44.48 718.749 45.2587 717.874 46.304C716.999 47.3493 716.562 48.6827 716.562 50.304C716.562 51.6693 716.925 52.8533 717.65 53.856C718.375 54.8373 719.591 55.744 721.298 56.576C723.026 57.3867 725.351 58.2187 728.274 59.072C730.407 59.6693 732.445 60.4373 734.386 61.376C736.327 62.2933 737.906 63.5947 739.122 65.28C740.359 66.944 740.978 69.1947 740.978 72.032Z" fill="black"/>
</g>
<defs>
<clipPath id="clip0_1_2">
<rect width="792" height="125" fill="white"/>
</clipPath>
</defs>
</svg>
